<svg viewBox="0 0 48 48" xmlns="http://www.w3.org/2000/svg"><path d="M28.425 2.84l18.898 37.992c.427.712.677 1.544.677 2.437 0 2.608-2.094 4.721-4.676 4.721H4.867c-.064.002-.127.01-.191.01C2.094 48 0 45.886 0 43.279c0-.878.241-1.696.654-2.4L19.618 2.838S20.736 0 23.999 0c3.367 0 4.426 2.84 4.426 2.84zM4.867 43.99h38.457c.365 0 .676-.314.676-.721a.726.726 0 0 0-.108-.381l-.08-.135L24.75 4.433a.796.796 0 0 0-.152-.234c-.135-.14-.263-.199-.599-.199-.281 0-.4.056-.542.203a1.161 1.161 0 0 0-.162.212L4.173 42.785l-.069.118a.726.726 0 0 0-.104.376c0 .385.28.688.62.719.02-.002.247-.008.247-.008zM21 37a3 3 0 1 1 6 0 3 3 0 0 1-6 0zm1-7V14h4v16h-4z"/></svg>