<svg viewBox="0 0 48 48" xmlns="http://www.w3.org/2000/svg"><path d="M2.47 5.044l4.01-4.006a3.56 3.56 0 0 1 5.026 0l8.404 8.397a3.558 3.558 0 0 1 0 5.027l-3.813 3.809c-.078.078-.14.317-.096.806.062.672.333 1.553.791 2.548.905 1.963 2.444 4.154 3.912 5.617 3.623 3.607 7.959 5.687 9.014 4.634l2.624-2.62.861-.862.327-.327a3.561 3.561 0 0 1 5.027 0l8.403 8.397a3.557 3.557 0 0 1 0 5.026l-4.01 4.007a3.291 3.291 0 0 1-.407.345c-6.386 5.235-19.797.575-30.396-10.015C1.614 25.302-3.05 11.814 2.113 5.467c.108-.149.222-.286.357-.423zm33.344 25.961l-.862.862-2.617 2.614c-3.247 3.24-9.213.379-14.236-4.623-4.485-4.466-7.595-11.217-4.611-14.199l3.714-3.71-8.209-8.203-3.909 3.906c.019-.018-.08.113-.08.113-3.65 4.404.367 16.072 9.753 25.45 9.447 9.44 21.038 13.45 25.477 9.745l.123-.094c.007-.005 3.895-3.89 3.895-3.89l-8.208-8.2c-.042.04-.108.107-.23.23z"/></svg>