<svg viewBox="0 0 50 49" xmlns="http://www.w3.org/2000/svg"><path d="M33.938 22.978a9.373 9.373 0 0 0-.318-1.349l14.577-3.707c.169.519.298 1.048.388 1.586l-14.647 3.47zm-1.346-3.55c.26.406.487.832.682 1.273l13.213-7.177a10.271 10.271 0 0 0-.843-1.568l-13.052 7.471zm10.4-11.098a13.307 13.307 0 0 0-1.497-1.556l-10.77 10.52c.483.409.922.864 1.312 1.36L42.992 8.33zM28.49 15.882a9.497 9.497 0 0 1 1.79 1.06L38.07 4.07a13.128 13.128 0 0 0-2.011-1.188l-7.57 13zm-2.462-.72a9.37 9.37 0 0 1 2.104.576l4.09-14.493c-.75-.28-1.523-.495-2.31-.64l-3.884 14.556zm-.132-15.1C25.486 0 24.977 0 24.573 0c-.405 0-.884 0-1.22.058l.133 15.069a9.427 9.427 0 0 1 2.277 0L25.896.063zm7.759 47.167l-1.606-5.724.196-.075 3.155 5.05a19.177 19.177 0 0 0 4.316-2.715l-2.889-4.612.15-.185 4.102 3.598a19.896 19.896 0 0 0 3.56-4.036L40.9 35.165l.116-.179 4.582 2.07a19.383 19.383 0 0 0 2.351-5.189l-4.154-1.925.052-.208 4.547.536c.5-1.882.74-3.823.716-5.77H34.088c-.019 5.023-3.987 9.146-9.016 9.37-5.03.222-9.348-3.534-9.813-8.535-.465-5.002 3.087-9.487 8.071-10.191L19.5.548c-.881.148-1.746.38-2.583.691l3.784 13.669-.202.08L13.468 2.67c-.878.4-1.712.89-2.49 1.459l6.933 11.477-.168.133-9.55-9.466A14.497 14.497 0 0 0 6.107 8.37l9.244 8.774-.15.15-11.058-6.341a14.761 14.761 0 0 0-1.6 2.75l10.567 5.805-.081.202L1.38 16.48a16.93 16.93 0 0 0-.884 3.28l11.087 2.721-.029.202H.098c-.034.56-.098 1.251-.098 1.81 0 .56.064 1.2.098 1.73l10.77-.093v.208L.439 28.945c.187 1.227.507 2.432.953 3.591l9.713-2.658.08.196-8.81 4.866A20.09 20.09 0 0 0 4.31 38.3l7.99-4.611.134.167-6.622 6.422a19.195 19.195 0 0 0 2.855 2.836l5.95-5.874.174.127-4.276 7.194a19.557 19.557 0 0 0 3.617 2.093l3.842-6.578.203.08-2 7.345c1.357.525 2.768.898 4.207 1.113l1.86-6.791.214.035.046 7.027c.682.057 1.364.115 2.057.115a24.61 24.61 0 0 0 2.467-.156V42.33l.214-.029 1.785 6.267c1.59-.253 3.142-.7 4.622-1.332l.006-.006z"/></svg>