<svg width="375" height="90" viewBox="0 0 375 90" xmlns="http://www.w3.org/2000/svg"><g fill-rule="nonzero"><path d="M58.6 40.3c-.1-.8-.3-1.6-.6-2.3l25.2-6.4c.3.9.5 1.8.7 2.7l-25.3 6zm-2.3-6.2c.4.7.8 1.4 1.2 2.2l22.8-12.4c-.4-.9-.9-1.9-1.5-2.7L56.3 34.1zm17.9-19.2c-.8-1-1.7-1.9-2.6-2.7L53.1 30.4c.8.7 1.6 1.5 2.3 2.3l18.8-17.8zM49.2 28c1.1.5 2.1 1.1 3.1 1.8L65.7 7.5c-1.1-.8-2.3-1.5-3.5-2.1L49.2 28zM45 26.7c1.2.2 2.5.5 3.6 1l7.1-25.1c-1.3-.5-2.6-.9-4-1.1L45 26.7zM44.7.6C44 .5 43.1.5 42.4.5c-.7 0-1.5 0-2.1.1l.2 26.1c.7-.1 1.3-.1 2-.1s1.3 0 2 .1L44.7.6zm13.4 81.6l-2.8-10 .3-.1 5.4 8.7c2.7-1.2 5.2-2.8 7.4-4.7l-5-8 .3-.2 7.1 6.2c2.4-2 4.4-4.4 6.2-7l-6.5-5.8.2-.3 7.9 3.6c1.8-2.8 3.2-5.8 4.1-9l-7.2-3.3.1-.3 7.9.9c.8-3.3 1.2-6.6 1.2-10h-26c0 9-7.4 16.3-16.4 16.2-9-.1-16.3-7.4-16.2-16.4 0-8.1 6-15 14.1-16.1L33.6 1.3c-1.5.3-3 .7-4.5 1.2l6.5 23.7-.4.1-12-21.2c-1.5.7-3 1.5-4.3 2.5l12 19.9-.3.2-16.5-16.3a30.6 30.6 0 0 0-3.6 3.6l15.9 15.2-.2.3-19.1-11c-1.1 1.5-2 3.1-2.8 4.8l18.2 10-.1.3-20-5.6c-.7 1.8-1.2 3.7-1.5 5.7L20 39.4l-.1.4H.2c-.1 1-.2 2.2-.2 3.1 0 .9.1 2.1.2 3l18.6-.2v.4l-18 4.5c.3 2.1.9 4.2 1.6 6.2l16.8-4.6.1.3L4.1 61c.9 2 2 4 3.3 5.8l13.8-8 .2.3L10 70.2c1.5 1.8 3.1 3.5 4.9 4.9L25.2 65l.3.2-7.3 12.4c1.9 1.4 4 2.6 6.2 3.6L31 69.9l.4.1L28 82.7c2.3.9 4.8 1.6 7.3 1.9l3.2-11.8.4.1.1 12.2c1.2.1 2.4.2 3.6.2 1.4 0 2.9-.1 4.3-.3V73.8l.3-.1 3.1 10.8c2.5-.4 5.2-1.2 7.8-2.3zM111 4h8.9v26.1c0 1.7.5 3 2.4 3 1.7 0 2.4-1 2.4-3V4h8.9v25.3c0 5.9-3 10.5-11.4 10.5-7 0-11.3-3.3-11.3-10.5V4h.1zM146 12.9l.2 2.3h.1c1.4-2 3.7-3.2 6.1-3.2 4.3 0 6.6 3.1 6.6 6.9v20h-8.4V20.7c.2-1-.5-1.9-1.5-2.1h-.3c-1.1 0-1.9.9-1.9 2v18.3h-8.4v-26h7.5zM164 4h8.6v6.3H164V4zm0 8.9h8.6V39H164V12.9zM175.7 18.1v-5.5h2.4V5.1h8.5v7.5h3.6v5.5h-3.6v13.3c-.1 1.2.8 2.2 1.9 2.3H190.2v5.5h-4.8c-4.6 0-7.3-2.5-7.3-6.7V18.1h-2.4zM212.2 30v.9c-.1 5.3-3.1 8.9-9.6 8.9-6 0-9.7-3-9.7-9V21c0-5.9 3.7-9 9.7-9 6.6 0 9.6 3.6 9.6 9v6.7h-11.5v4.7c0 1 .8 1.8 1.8 1.8h.1c1 0 1.8-.8 1.8-1.8V30h7.8zm-7.8-7.5v-3c-.1-1-.9-1.8-1.9-1.7-.9.1-1.6.8-1.7 1.7v3h3.6zM236.8 4v35h-7.2l-.1-2h-.2c-1.3 1.9-3.5 3-5.8 2.8-4.3 0-6.6-3-6.6-7.4v-13c0-4.4 2.7-7.3 6.5-7.3 1.9 0 3.8.6 5.2 1.8V4h8.2zm-11.9 28c-.1 1 .6 1.9 1.5 2h.3c1 0 1.8-.8 1.9-1.8V19.5c0-1-.7-1.9-1.7-1.9h-.1c-1 0-1.8.7-1.8 1.7v.3c0 1.4-.1 12.4-.1 12.4zM111 46.1h21.2v7h-6.1V81h-9.3V53.1H111v-7zM150 72.1v.9c-.1 5.3-3.1 8.8-9.6 8.8-6 0-9.7-3-9.7-8.9v-9.8c0-5.9 3.7-8.9 9.7-8.9 6.6 0 9.6 3.6 9.6 8.9v6.7h-11.4v4.7c0 1 .8 1.8 1.8 1.8h.1c1 0 1.8-.8 1.8-1.8v-2.4h7.7zm-7.8-7.5v-3c-.1-1-.9-1.8-1.9-1.7-.9.1-1.6.8-1.7 1.7v3h3.6zM174.9 71.1V73c0 5.4-3.5 8.9-10.2 8.9-6 0-10.2-3-10.2-8.9v-9.8c0-5.9 4.1-8.9 10.2-8.9 6.6 0 10.2 3.6 10.2 8.9v1.6h-8.4v-3.1c-.1-1-.9-1.7-1.9-1.6-.9.1-1.5.8-1.6 1.6v12.8c.1 1 .9 1.7 1.9 1.6.9-.1 1.5-.8 1.6-1.6v-3.4h8.4zM187.6 46.1v10.4c1.4-1.5 3.4-2.4 5.4-2.4 4.6 0 6.5 3.2 6.5 6.9v19.9h-8.4V62.8c.1-1-.6-1.9-1.6-2h-.2c-1 0-1.9.9-1.9 1.9V81h-8.3V46.1h8.5zM212.2 55.1l.2 2.3h.1c1.4-2 3.7-3.2 6.1-3.2 4.3 0 6.6 3.1 6.6 6.9v20h-8.4V62.9c.2-1-.5-1.9-1.5-2.1h-.3c-1.1 0-1.9.9-1.9 2v18.3h-8.4v-26h7.5zM229.7 63.2c0-5.9 4.1-8.9 10.1-8.9 6.6 0 10.1 3.6 10.1 8.9V73c0 5.4-3.5 8.9-10.1 8.9-6 0-10.1-3-10.1-8.9v-9.8zm8.2 11.3c0 1 .8 1.8 1.8 1.8h.1c1 0 1.9-.8 1.9-1.8V61.7c0-1-.9-1.8-1.9-1.8-1 0-1.9.7-1.9 1.7v12.9zM254.5 46.1h8.6V81h-8.6zM267.7 63.2c0-5.9 4-8.9 10.1-8.9 6.6 0 10.1 3.6 10.1 8.9V73c0 5.4-3.5 8.9-10.1 8.9-6 0-10.1-3-10.1-8.9v-9.8zm8.2 11.3c0 1 .8 1.8 1.8 1.8h.1c1 0 1.9-.8 1.9-1.8V61.7c0-1-.9-1.8-1.9-1.8-1 0-1.9.7-1.9 1.7v12.9zM300.8 81.9v.5c0 .9.7 1.7 1.6 1.7h.1c.9 0 1.7-.7 1.8-1.6v-4.3c-1.5 1.2-3.3 1.8-5.2 1.7-4.1 0-6.4-2.7-6.4-7V61.4c0-4.2 2.3-7.2 6.5-7.2 2.3-.1 4.4 1 5.8 2.8h.2l.1-2h7.1v25.7c0 5.3-2.6 8.8-9.9 8.8-6.3 0-9.8-2.8-9.9-7.7l8.2.1zm0-8.9c-.1 1 .5 1.8 1.5 2h.3c1 0 1.8-.8 1.8-1.8V61.8c.1-1-.7-1.9-1.7-1.9h-.1c-1 0-1.8.7-1.8 1.7V73zM317.8 46.2h8.6v6.3h-8.6v-6.3zm0 8.8h8.6v26.1h-8.6V55zM350.5 72.1v.9c-.1 5.3-3.1 8.8-9.6 8.8-6 0-9.7-3-9.7-8.9v-9.8c0-5.9 3.7-8.9 9.7-8.9 6.6 0 9.6 3.6 9.6 8.9v6.7H339v4.7c0 1 .8 1.8 1.8 1.8h.1c1 0 1.8-.8 1.8-1.8v-2.4h7.8zm-7.8-7.5v-3c-.1-1-.9-1.8-1.9-1.7-.9.1-1.6.8-1.7 1.7v3h3.6zM373.9 63.4h-7.6v-1.6c0-.6-.2-1.1-.5-1.5-.4-.5-1-.7-1.7-.7-.6 0-1.2.2-1.6.6-.3.3-.5.7-.5 1.2 0 1 .7 1.7 1.8 2.4s2.6 1.3 4 2c1.8.7 3.4 1.7 4.9 2.9 1.3 1.3 2.1 3.1 2 4.9.1 2.4-1 4.8-3 6.2-2.2 1.4-4.9 2.2-7.5 2.1-3.3 0-5.8-.8-7.5-2.3-1.8-1.7-2.7-4-2.6-6.5v-1h7.7v2.1c0 .6.2 1.2.6 1.6.5.5 1.2.7 1.9.7.6 0 1.2-.2 1.6-.6.4-.4.6-.9.6-1.5 0-.9-.5-1.7-1.2-2.2-1.2-.8-2.4-1.5-3.8-2-2-.6-3.7-1.7-5.2-3.2-1.2-1.4-1.9-3.2-1.8-5.1-.1-2.4 1-4.6 3-6 2-1.3 4.4-1.9 6.8-1.9 2.5-.1 4.9.6 6.9 2 1.8 1.3 2.8 3.4 2.8 6.5l-.1.9z"/></g></svg>
